<svg version="1.1" id="Layer_1" xmlns="http://www.w3.org/2000/svg" xmlns:xlink="http://www.w3.org/1999/xlink" x="0px" y="0px"
	 width="100%" viewBox="0 0 480 479" enable-background="new 0 0 480 479" xml:space="preserve">
<path fill="#FEFEFF" opacity="1.000000" stroke="none" 
	d="
M264.000000,480.000000 
	C176.000000,480.000000 88.500000,480.000000 1.000000,480.000000 
	C1.000000,320.333344 1.000000,160.666672 1.000000,1.000000 
	C161.000000,1.000000 321.000000,1.000000 481.000000,1.000000 
	C481.000000,160.666672 481.000000,320.333344 481.000000,480.000000 
	C408.833344,480.000000 336.666656,480.000000 264.000000,480.000000 
M287.423157,278.679413 
	C290.233887,282.893127 294.468750,280.615814 298.102600,280.975861 
	C302.525177,281.414093 304.118744,279.267120 303.523376,274.323090 
	C303.381866,267.865997 303.240387,261.408905 303.289001,254.125931 
	C303.234253,252.438248 303.179535,250.750549 303.572144,248.500305 
	C303.930084,247.045609 304.354828,245.603653 304.634705,244.134094 
	C306.073578,236.579559 310.534821,233.020996 317.819794,233.665771 
	C323.176941,234.139908 326.414307,238.443771 326.495850,245.648376 
	C326.612732,255.977722 326.560760,266.309113 326.553040,276.639618 
	C326.551270,278.987732 326.796082,281.416412 329.880829,280.908997 
	C334.377136,280.169342 339.511658,283.291718 343.346405,278.784027 
	C343.690186,278.379944 343.495544,277.489502 343.494965,276.824982 
	C343.484741,265.328064 343.861542,253.812393 343.317627,242.340469 
	C342.916077,233.870285 340.921143,225.467850 331.962219,221.643066 
	C322.728882,217.701126 314.083191,218.729614 306.762177,226.278931 
	C306.214600,226.843536 305.105835,226.863922 304.219543,227.149704 
	C302.928253,220.782578 302.928284,220.780060 296.759033,220.696411 
	C295.426270,220.678329 294.085938,220.773605 292.761536,220.664856 
	C288.792786,220.339020 287.041382,221.816254 287.144958,226.085297 
	C287.379364,235.743683 287.142365,245.412491 287.227783,255.075882 
	C287.295288,262.713776 287.557648,270.349976 287.423157,278.679413 
M124.461472,239.363678 
	C127.828033,226.771606 131.194595,214.179535 134.881912,200.387726 
	C130.056732,200.387726 126.439293,200.602280 122.858597,200.331360 
	C118.736519,200.019470 117.008987,201.652740 116.177811,205.733658 
	C113.290985,219.907532 110.058815,234.012115 106.844666,248.117233 
	C106.344208,250.313416 105.252670,252.374893 103.972153,255.698654 
	C103.167374,253.589478 102.881287,253.014633 102.725739,252.406433 
	C99.067039,238.099548 95.580933,223.746124 91.719780,209.494278 
	C89.125938,199.920166 88.890007,199.984238 78.889175,200.349442 
	C78.556374,200.361588 78.120041,200.229355 77.906929,200.392700 
	C76.495018,201.474854 74.271988,202.382263 73.885811,203.780838 
	C70.484154,216.100189 67.447807,228.519852 64.223068,240.888901 
	C63.091503,245.229233 61.736816,249.511398 60.484016,253.820114 
	C59.914623,253.795670 59.345230,253.771210 58.775841,253.746765 
	C58.274368,252.149277 57.655064,250.578217 57.290096,248.950134 
	C54.420414,236.148605 51.690750,223.314819 48.701729,210.541550 
	C47.914352,207.176773 47.271282,202.617035 44.935860,201.085266 
	C42.329597,199.375885 37.860916,200.622696 34.221420,200.342010 
	C29.856302,200.005341 29.212317,201.667328 30.311205,205.666626 
	C36.033840,226.493561 41.512695,247.387482 47.079956,268.257111 
	C50.623459,281.540466 50.622627,281.431396 62.891857,281.022980 
	C66.009956,280.919159 67.385117,279.562775 68.119164,276.835815 
	C71.695969,263.548004 75.279869,250.261887 78.944130,236.998062 
	C79.645546,234.459076 80.719078,232.022888 81.620934,229.539276 
	C87.009720,244.766708 91.029556,259.807495 95.328766,274.768005 
	C95.966133,276.985901 97.793053,280.423462 99.291641,280.544312 
	C104.098114,280.932007 109.010590,280.046387 113.873787,279.567200 
	C114.111618,279.543701 114.334312,278.731659 114.456207,278.259003 
	C117.731094,265.561462 120.991829,252.860275 124.461472,239.363678 
M417.160950,233.316330 
	C417.979980,235.090454 419.438263,236.838547 419.511688,238.643005 
	C419.911194,248.459793 419.803375,258.297241 420.204407,268.113922 
	C420.463318,274.452057 424.183167,279.358002 429.896179,280.636932 
	C434.074310,281.572266 438.469727,281.659485 442.780273,281.842926 
	C446.389954,281.996582 447.777100,279.883484 447.527008,276.392914 
	C447.297028,273.182983 448.382812,269.266510 443.068726,269.258667 
	C438.125366,269.251404 436.398682,266.476196 436.480865,261.859558 
	C436.599457,255.196594 436.503357,248.530014 436.521057,241.865036 
	C436.540802,234.426880 436.536743,234.310394 443.712219,233.395782 
	C447.536224,232.908356 447.670685,230.379639 447.400024,227.600403 
	C447.154114,225.075104 448.732544,221.661926 444.190430,221.028442 
	C436.653961,219.977310 436.493347,219.881592 436.598663,212.177841 
	C436.656921,207.916626 435.200500,206.237076 430.796021,206.261826 
	C420.445099,206.319977 420.381165,206.145966 419.582520,216.541519 
	C419.370483,219.301758 418.463562,221.144440 415.479126,220.971588 
	C409.281433,220.612686 410.973755,225.131180 410.565521,228.518295 
	C409.987274,233.315918 413.301788,232.939819 417.160950,233.316330 
M229.419174,263.496704 
	C229.419235,265.661011 229.363144,267.827057 229.428741,269.989380 
	C229.781921,281.632019 227.132217,280.705627 240.325729,281.074463 
	C245.338974,281.214569 246.506332,279.413330 246.460709,274.760071 
	C246.248505,253.119064 246.345276,231.475113 246.313721,209.832245 
	C246.298340,199.278961 246.281830,199.385071 235.588989,199.493652 
	C231.311646,199.537094 229.338974,200.776306 229.392593,205.561966 
	C229.605270,224.538284 229.443100,243.518784 229.419174,263.496704 
M200.502594,255.500046 
	C200.499939,260.326355 200.494385,265.152679 200.495209,269.979004 
	C200.497116,281.027039 200.503632,280.792236 211.594254,281.039886 
	C216.231461,281.143402 217.081543,279.414093 217.046524,275.239349 
	C216.864990,253.605652 217.055832,231.969040 216.923416,210.334641 
	C216.853317,198.880981 219.402100,199.605392 205.939346,199.547180 
	C201.952728,199.529953 200.358521,200.842255 200.411011,205.073013 
	C200.615372,221.546539 200.500717,238.023987 200.502594,255.500046 
M188.496719,262.498199 
	C188.475082,254.837967 188.573532,247.174911 188.393173,239.518417 
	C188.253067,233.570099 185.967163,228.508377 181.078537,224.878143 
	C170.404449,216.951691 152.267441,217.668716 142.591156,226.735855 
	C140.288910,228.893143 138.860886,232.113434 137.493408,235.059540 
	C137.079529,235.951202 137.831299,238.123444 138.722092,238.745544 
	C141.651230,240.791168 150.324524,239.105804 152.945389,236.315506 
	C156.369690,232.669815 164.210526,230.884735 168.084625,233.885757 
	C170.110474,235.455048 171.215607,239.091415 171.432648,241.895142 
	C171.704575,245.408249 168.356979,244.932068 165.896667,245.174026 
	C159.967117,245.757187 153.897034,245.845078 148.161102,247.258667 
	C137.845428,249.800888 133.028732,257.037384 134.271805,266.603973 
	C135.413742,275.392456 143.164215,281.548889 153.160080,281.715271 
	C159.961792,281.828461 165.767380,279.558105 170.723770,273.916290 
	C171.359131,275.658020 171.523880,276.820923 172.143173,277.640289 
	C173.066605,278.861908 174.329620,280.780151 175.414902,280.758209 
	C179.705048,280.671387 183.989075,279.988434 188.245239,279.331238 
	C188.472198,279.296173 188.486923,277.476044 188.492188,276.486328 
	C188.515244,272.156647 188.498352,267.826721 188.496719,262.498199 
M275.633179,264.494202 
	C275.614899,253.527374 275.628571,242.560364 275.569489,231.593750 
	C275.508331,220.247345 277.293396,220.600693 263.943268,220.606552 
	C260.481750,220.608063 258.660309,221.955399 258.664032,225.592880 
	C258.681610,242.707932 258.676636,259.823212 258.587982,276.937927 
	C258.573822,279.678314 259.628754,280.973907 262.352905,280.944366 
	C264.014160,280.926361 265.675934,280.957855 267.337463,280.957947 
	C275.579590,280.958466 275.579681,280.957397 275.607452,272.968384 
	C275.616119,270.475922 275.624207,267.983459 275.633179,264.494202 
M378.623535,282.648895 
	C384.410858,281.431702 390.500031,280.972260 395.913391,278.816132 
	C403.647339,275.735718 406.615173,269.155365 405.718872,260.009521 
	C404.998627,252.660370 400.018463,249.120575 393.558380,247.169312 
	C390.711151,246.309311 387.748688,245.837830 384.876343,245.051880 
	C381.040009,244.002167 377.057770,243.218964 373.473358,241.585724 
	C369.413025,239.735611 369.607880,235.265350 373.495331,233.086563 
	C378.383698,230.346786 383.984100,231.604034 387.619720,236.257370 
	C389.893738,239.167908 399.786316,241.108398 402.730896,238.923065 
	C403.646851,238.243271 404.499084,235.920654 404.041931,235.203903 
	C401.362152,231.002426 399.126038,225.640701 395.180023,223.294327 
	C384.785645,217.113693 373.502563,217.523895 362.762604,223.115326 
	C356.320465,226.469223 353.149963,232.339417 353.422180,239.531601 
	C353.686676,246.518936 357.583435,251.308762 364.194855,253.642197 
	C368.262024,255.077682 372.420929,256.259583 376.560150,257.482513 
	C379.420715,258.327667 382.426147,258.780701 385.172485,259.890137 
	C388.909119,261.399628 389.635315,265.581818 386.829926,267.892914 
	C383.869904,270.331390 373.694946,270.516571 371.802979,267.330017 
	C368.435028,261.657562 363.507141,262.158783 358.346252,262.264313 
	C352.333496,262.387299 351.060974,264.591064 353.851501,270.002075 
	C358.885742,279.763824 367.961578,281.818970 378.623535,282.648895 
M269.793671,195.544571 
	C268.630707,195.484390 267.451172,195.268890 266.307678,195.391037 
	C261.439362,195.911072 257.867706,200.253479 258.207275,205.115646 
	C258.534943,209.807495 261.849335,212.588867 266.939148,212.900024 
	C271.990479,213.208801 275.086029,210.486633 276.220337,206.206009 
	C277.485016,201.433304 274.867981,197.925278 269.793671,195.544571 
z"/>
<path fill="#6443EF" opacity="1.000000" stroke="none" 
	d="
M124.358215,239.761688 
	C120.991829,252.860275 117.731094,265.561462 114.456207,278.259003 
	C114.334312,278.731659 114.111618,279.543701 113.873787,279.567200 
	C109.010590,280.046387 104.098114,280.932007 99.291641,280.544312 
	C97.793053,280.423462 95.966133,276.985901 95.328766,274.768005 
	C91.029556,259.807495 87.009720,244.766708 81.620934,229.539276 
	C80.719078,232.022888 79.645546,234.459076 78.944130,236.998062 
	C75.279869,250.261887 71.695969,263.548004 68.119164,276.835815 
	C67.385117,279.562775 66.009956,280.919159 62.891857,281.022980 
	C50.622627,281.431396 50.623459,281.540466 47.079956,268.257111 
	C41.512695,247.387482 36.033840,226.493561 30.311205,205.666626 
	C29.212317,201.667328 29.856302,200.005341 34.221420,200.342010 
	C37.860916,200.622696 42.329597,199.375885 44.935860,201.085266 
	C47.271282,202.617035 47.914352,207.176773 48.701729,210.541550 
	C51.690750,223.314819 54.420414,236.148605 57.290096,248.950134 
	C57.655064,250.578217 58.274368,252.149277 58.775841,253.746765 
	C59.345230,253.771210 59.914623,253.795670 60.484016,253.820114 
	C61.736816,249.511398 63.091503,245.229233 64.223068,240.888901 
	C67.447807,228.519852 70.484154,216.100189 73.885811,203.780838 
	C74.271988,202.382263 76.495018,201.474854 77.906929,200.392700 
	C78.120041,200.229355 78.556374,200.361588 78.889175,200.349442 
	C88.890007,199.984238 89.125938,199.920166 91.719780,209.494278 
	C95.580933,223.746124 99.067039,238.099548 102.725739,252.406433 
	C102.881287,253.014633 103.167374,253.589478 103.972153,255.698654 
	C105.252670,252.374893 106.344208,250.313416 106.844666,248.117233 
	C110.058815,234.012115 113.290985,219.907532 116.177811,205.733658 
	C117.008987,201.652740 118.736519,200.019470 122.858597,200.331360 
	C126.439293,200.602280 130.056732,200.387726 134.881912,200.387726 
	C131.194595,214.179535 127.828033,226.771606 124.358215,239.761688 
M85.271599,203.696884 
	C84.883194,203.909607 84.390022,204.034576 84.125168,204.350784 
	C83.163460,205.498962 82.278229,206.711166 81.364151,207.899216 
	C80.180374,206.462738 78.996597,205.026260 77.274582,202.936646 
	C76.495270,205.378418 75.718079,207.539413 75.115974,209.748138 
	C72.682518,218.674789 70.204971,227.591354 67.937233,236.560577 
	C66.364014,242.782867 65.302856,249.140228 63.566151,255.311523 
	C63.150883,256.787140 61.087315,258.402191 59.528461,258.723419 
	C58.613426,258.911926 56.972435,256.824921 56.081505,255.480743 
	C55.390930,254.438889 55.313446,252.971069 55.038548,251.676666 
	C53.871159,246.179810 52.742123,240.674805 51.579777,235.176880 
	C49.709572,226.330795 47.792313,217.494522 45.960697,208.640503 
	C45.224308,205.080780 44.066730,202.274612 39.528721,202.940598 
	C37.613625,203.221649 35.622913,202.987442 33.135216,202.987442 
	C33.135216,205.000671 32.823215,206.520844 33.184792,207.859024 
	C35.966518,218.154037 38.926983,228.400635 41.736404,238.688354 
	C44.221169,247.787186 47.141010,256.816528 48.849316,266.064880 
	C50.733990,276.268036 53.377460,278.989868 63.265644,277.925934 
	C63.581337,277.891968 63.881256,277.711426 65.357155,277.172302 
	C66.531227,271.586945 67.510582,265.268127 69.223602,259.154877 
	C72.022270,249.167313 75.127853,239.254333 78.526634,229.456512 
	C79.162949,227.622177 81.623940,225.495407 83.512207,225.194687 
	C89.119621,224.301651 91.386124,220.992722 90.107498,215.394699 
	C89.298691,211.853622 86.221664,208.808182 87.579262,204.737183 
	C87.610138,204.644577 86.505424,204.173279 85.271599,203.696884 
z"/>
<path fill="#8927F1" opacity="1.000000" stroke="none" 
	d="
M416.731873,233.202118 
	C413.301788,232.939819 409.987274,233.315918 410.565521,228.518295 
	C410.973755,225.131180 409.281433,220.612686 415.479126,220.971588 
	C418.463562,221.144440 419.370483,219.301758 419.582520,216.541519 
	C420.381165,206.145966 420.445099,206.319977 430.796021,206.261826 
	C435.200500,206.237076 436.656921,207.916626 436.598663,212.177841 
	C436.493347,219.881592 436.653961,219.977310 444.190430,221.028442 
	C448.732544,221.661926 447.154114,225.075104 447.400024,227.600403 
	C447.670685,230.379639 447.536224,232.908356 443.712219,233.395782 
	C436.536743,234.310394 436.540802,234.426880 436.521057,241.865036 
	C436.503357,248.530014 436.599457,255.196594 436.480865,261.859558 
	C436.398682,266.476196 438.125366,269.251404 443.068726,269.258667 
	C448.382812,269.266510 447.297028,273.182983 447.527008,276.392914 
	C447.777100,279.883484 446.389954,281.996582 442.780273,281.842926 
	C438.469727,281.659485 434.074310,281.572266 429.896179,280.636932 
	C424.183167,279.358002 420.463318,274.452057 420.204407,268.113922 
	C419.803375,258.297241 419.911194,248.459793 419.511688,238.643005 
	C419.438263,236.838547 417.979980,235.090454 416.731873,233.202118 
z"/>
<path fill="#823DF0" opacity="1.000000" stroke="none" 
	d="
M303.098877,254.951828 
	C303.240387,261.408905 303.381866,267.865997 302.934448,274.727295 
	C300.133270,276.085297 297.998077,277.451782 295.688293,277.882690 
	C293.119598,278.361969 290.391907,277.988922 287.733429,277.986908 
	C287.557648,270.349976 287.295288,262.713776 287.227783,255.075882 
	C287.142365,245.412491 287.379364,235.743683 287.144958,226.085297 
	C287.041382,221.816254 288.792786,220.339020 292.761536,220.664856 
	C294.085938,220.773605 295.426270,220.678329 296.759033,220.696411 
	C302.928284,220.780060 302.928253,220.782578 304.219543,227.149704 
	C305.105835,226.863922 306.214600,226.843536 306.762177,226.278931 
	C314.083191,218.729614 322.728882,217.701126 331.962219,221.643066 
	C340.921143,225.467850 342.916077,233.870285 343.317627,242.340469 
	C343.861542,253.812393 343.484741,265.328064 343.494965,276.824982 
	C343.495544,277.489502 343.690186,278.379944 343.346405,278.784027 
	C339.511658,283.291718 334.377136,280.169342 329.880829,280.908997 
	C326.796082,281.416412 326.551270,278.987732 326.553040,276.639618 
	C326.560760,266.309113 326.612732,255.977722 326.495850,245.648376 
	C326.414307,238.443771 323.176941,234.139908 317.819794,233.665771 
	C310.534821,233.020996 306.073578,236.579559 304.634705,244.134094 
	C304.354828,245.603653 303.930084,247.045609 303.077484,248.620438 
	C302.056458,248.717499 301.530060,248.694427 301.003693,248.671356 
	C301.003693,251.152817 301.003693,253.634277 301.003693,256.498810 
	C302.082520,255.702255 302.590698,255.327042 303.098877,254.951828 
M329.618958,241.402267 
	C329.740082,252.187790 330.014679,262.974976 329.898895,273.757965 
	C329.858459,277.521271 331.450134,278.243927 334.670868,278.070312 
	C337.550446,277.915100 340.212128,278.458740 340.101440,273.918762 
	C339.830261,262.793060 340.449432,251.634201 339.890900,240.529892 
	C339.247162,227.729919 332.083435,222.940277 320.435364,223.161118 
	C316.436188,223.236954 311.941467,224.314743 309.981659,229.618423 
	C317.826569,231.372665 326.929108,230.387405 329.618958,241.402267 
M301.802948,269.877136 
	C301.802948,268.435150 301.802948,266.993195 301.802948,265.551208 
	C301.126801,265.675629 300.450623,265.800018 299.774475,265.924408 
	C300.299805,267.425079 300.825134,268.925751 301.802948,269.877136 
z"/>
<path fill="#7537F2" opacity="1.000000" stroke="none" 
	d="
M229.419510,262.997223 
	C229.443100,243.518784 229.605270,224.538284 229.392593,205.561966 
	C229.338974,200.776306 231.311646,199.537094 235.588989,199.493652 
	C246.281830,199.385071 246.298340,199.278961 246.313721,209.832245 
	C246.345276,231.475113 246.248505,253.119064 246.460709,274.760071 
	C246.506332,279.413330 245.338974,281.214569 240.325729,281.074463 
	C227.132217,280.705627 229.781921,281.632019 229.428741,269.989380 
	C229.363144,267.827057 229.419235,265.661011 229.419510,262.997223 
z"/>
<path fill="#6B36F0" opacity="1.000000" stroke="none" 
	d="
M200.503662,255.000015 
	C200.500717,238.023987 200.615372,221.546539 200.411011,205.073013 
	C200.358521,200.842255 201.952728,199.529953 205.939346,199.547180 
	C219.402100,199.605392 216.853317,198.880981 216.923416,210.334641 
	C217.055832,231.969040 216.864990,253.605652 217.046524,275.239349 
	C217.081543,279.414093 216.231461,281.143402 211.594254,281.039886 
	C200.503632,280.792236 200.497116,281.027039 200.495209,269.979004 
	C200.494385,265.152679 200.499939,260.326355 200.503662,255.000015 
z"/>
<path fill="#6B3FEF" opacity="1.000000" stroke="none" 
	d="
M188.496338,262.997559 
	C188.498352,267.826721 188.515244,272.156647 188.492188,276.486328 
	C188.486923,277.476044 188.472198,279.296173 188.245239,279.331238 
	C183.989075,279.988434 179.705048,280.671387 175.414902,280.758209 
	C174.329620,280.780151 173.066605,278.861908 172.143173,277.640289 
	C171.523880,276.820923 171.359131,275.658020 170.723770,273.916290 
	C165.767380,279.558105 159.961792,281.828461 153.160080,281.715271 
	C143.164215,281.548889 135.413742,275.392456 134.271805,266.603973 
	C133.028732,257.037384 137.845428,249.800888 148.161102,247.258667 
	C153.897034,245.845078 159.967117,245.757187 165.896667,245.174026 
	C168.356979,244.932068 171.704575,245.408249 171.432648,241.895142 
	C171.215607,239.091415 170.110474,235.455048 168.084625,233.885757 
	C164.210526,230.884735 156.369690,232.669815 152.945389,236.315506 
	C150.324524,239.105804 141.651230,240.791168 138.722092,238.745544 
	C137.831299,238.123444 137.079529,235.951202 137.493408,235.059540 
	C138.860886,232.113434 140.288910,228.893143 142.591156,226.735855 
	C152.267441,217.668716 170.404449,216.951691 181.078537,224.878143 
	C185.967163,228.508377 188.253067,233.570099 188.393173,239.518417 
	C188.573532,247.174911 188.475082,254.837967 188.496338,262.997559 
M145.973404,227.413651 
	C144.087555,229.767136 142.201691,232.120621 139.787430,235.133530 
	C142.089859,235.684341 142.728546,235.795975 143.341125,235.990051 
	C149.544937,237.955627 153.087112,232.536514 157.519516,230.283539 
	C161.765945,228.125092 165.060104,228.057404 168.513062,230.401810 
	C172.510391,233.115814 175.419983,236.927841 174.834518,242.059845 
	C174.639023,243.773422 172.944992,246.395370 171.522446,246.705551 
	C164.848541,248.160767 158.061630,249.350296 151.256149,249.885117 
	C142.876236,250.543701 139.260529,252.980423 137.784195,261.427124 
	C136.086990,271.137421 139.375000,274.707672 145.753799,277.334564 
	C153.958130,280.713165 163.368164,278.700653 167.832794,271.210876 
	C164.459503,271.495636 161.449875,271.933044 158.435837,271.965790 
	C152.275314,272.032806 148.239624,268.473480 148.013580,263.041016 
	C147.774368,257.291992 151.681595,253.401978 158.032440,252.999481 
	C160.502853,252.842896 163.017578,252.815170 165.423141,252.307266 
	C174.579880,250.373962 176.532684,255.921570 174.551285,261.986908 
	C172.645569,267.820557 174.683060,272.522003 175.781708,278.801117 
	C177.248703,277.419250 178.604721,276.758270 178.819656,275.832397 
	C179.734833,271.890259 181.093552,267.822784 180.857269,263.887085 
	C180.291168,254.457321 183.498428,244.659393 178.457932,235.579544 
	C178.239731,235.186478 179.307724,234.079437 179.636978,233.535568 
	C181.346695,234.521240 182.721100,235.313599 184.602524,236.398254 
	C183.923569,229.288330 178.024887,225.282318 172.628052,227.616196 
	C171.719467,224.045837 169.537994,222.446640 165.791733,223.543030 
	C164.855179,223.817123 163.708786,224.175674 162.877594,223.880127 
	C156.806442,221.721573 151.532593,223.423981 145.973404,227.413651 
M161.840454,255.047516 
	C159.126038,255.700714 156.177414,255.886856 153.746658,257.105743 
	C148.894867,259.538635 148.717239,265.673004 153.130081,268.351532 
	C158.352753,271.521606 167.865173,269.458221 170.648727,264.034241 
	C171.822769,261.746552 171.817169,258.620941 171.496475,255.979614 
	C171.425735,255.397034 167.755722,255.188248 165.727234,254.933975 
	C164.754700,254.812088 163.745102,254.985733 161.840454,255.047516 
z"/>
<path fill="#7938F2" opacity="1.000000" stroke="none" 
	d="
M275.632874,264.992615 
	C275.624207,267.983459 275.616119,270.475922 275.607452,272.968384 
	C275.579681,280.957397 275.579590,280.958466 267.337463,280.957947 
	C265.675934,280.957855 264.014160,280.926361 262.352905,280.944366 
	C259.628754,280.973907 258.573822,279.678314 258.587982,276.937927 
	C258.676636,259.823212 258.681610,242.707932 258.664032,225.592880 
	C258.660309,221.955399 260.481750,220.608063 263.943268,220.606552 
	C277.293396,220.600693 275.508331,220.247345 275.569489,231.593750 
	C275.628571,242.560364 275.614899,253.527374 275.632874,264.992615 
z"/>
<path fill="#9D62EA" opacity="1.000000" stroke="none" 
	d="
M378.166321,282.646057 
	C367.961578,281.818970 358.885742,279.763824 353.851501,270.002075 
	C351.060974,264.591064 352.333496,262.387299 358.346252,262.264313 
	C363.507141,262.158783 368.435028,261.657562 371.802979,267.330017 
	C373.694946,270.516571 383.869904,270.331390 386.829926,267.892914 
	C389.635315,265.581818 388.909119,261.399628 385.172485,259.890137 
	C382.426147,258.780701 379.420715,258.327667 376.560150,257.482513 
	C372.420929,256.259583 368.262024,255.077682 364.194855,253.642197 
	C357.583435,251.308762 353.686676,246.518936 353.422180,239.531601 
	C353.149963,232.339417 356.320465,226.469223 362.762604,223.115326 
	C373.502563,217.523895 384.785645,217.113693 395.180023,223.294327 
	C399.126038,225.640701 401.362152,231.002426 404.041931,235.203903 
	C404.499084,235.920654 403.646851,238.243271 402.730896,238.923065 
	C399.786316,241.108398 389.893738,239.167908 387.619720,236.257370 
	C383.984100,231.604034 378.383698,230.346786 373.495331,233.086563 
	C369.607880,235.265350 369.413025,239.735611 373.473358,241.585724 
	C377.057770,243.218964 381.040009,244.002167 384.876343,245.051880 
	C387.748688,245.837830 390.711151,246.309311 393.558380,247.169312 
	C400.018463,249.120575 404.998627,252.660370 405.718872,260.009521 
	C406.615173,269.155365 403.647339,275.735718 395.913391,278.816132 
	C390.500031,280.972260 384.410858,281.431702 378.166321,282.646057 
M357.129211,265.157013 
	C356.943909,266.454773 356.130646,268.222626 356.686707,268.965454 
	C358.643646,271.579712 360.649048,274.634521 363.395081,276.096008 
	C373.485779,281.466431 384.020538,281.727661 394.397552,276.743835 
	C400.970154,273.587128 405.427399,264.568451 403.085358,258.628815 
	C400.890869,253.063385 396.231842,250.686172 391.263977,249.074219 
	C385.535370,247.215469 379.523285,246.230331 373.634033,244.866974 
	C369.951080,244.014374 368.211426,241.088562 368.457886,237.937347 
	C368.650970,235.468567 370.152740,232.114822 372.126251,230.970261 
	C376.788818,228.266159 384.872864,228.340454 388.482544,233.351318 
	C390.810028,236.582321 393.402496,237.498459 396.898529,237.017120 
	C398.254517,236.830399 400.466400,236.475571 400.677948,235.736404 
	C401.075806,234.346313 400.843048,232.131744 399.924927,231.119507 
	C395.753662,226.520859 391.065277,222.250549 384.445831,222.074203 
	C379.335083,221.938049 374.142395,222.334351 369.091827,223.149048 
	C363.267670,224.088501 357.200287,230.943283 356.917786,236.056900 
	C356.396210,245.497925 358.732849,249.207413 367.562531,252.031052 
	C372.599640,253.641815 377.768616,254.870010 382.924957,256.069366 
	C387.563049,257.148163 391.009247,260.520905 390.932159,264.294098 
	C390.848419,268.392395 387.732758,272.548126 383.088593,272.481506 
	C378.677979,272.418213 373.385010,271.522247 370.134918,268.923126 
	C366.211823,265.785767 362.597015,264.537506 357.129211,265.157013 
z"/>
<path fill="#966AE8" opacity="1.000000" stroke="none" 
	d="
M270.156525,195.660538 
	C274.867981,197.925278 277.485016,201.433304 276.220337,206.206009 
	C275.086029,210.486633 271.990479,213.208801 266.939148,212.900024 
	C261.849335,212.588867 258.534943,209.807495 258.207275,205.115646 
	C257.867706,200.253479 261.439362,195.911072 266.307678,195.391037 
	C267.451172,195.268890 268.630707,195.484390 270.156525,195.660538 
M272.912537,207.161926 
	C272.965881,206.833221 272.978485,206.491486 273.078796,206.177795 
	C274.293732,202.378708 273.321808,199.054855 269.238251,198.760742 
	C266.642548,198.573792 262.721405,199.927063 261.460693,201.905914 
	C259.423950,205.102753 261.730560,207.896729 265.019775,209.926544 
	C268.617554,212.146790 270.559265,210.309753 272.912537,207.161926 
z"/>
<path fill="#7C3AE5" opacity="1.000000" stroke="none" 
	d="
M287.578308,278.333160 
	C290.391907,277.988922 293.119598,278.361969 295.688293,277.882690 
	C297.998077,277.451782 300.133270,276.085297 302.729919,275.080566 
	C304.118744,279.267120 302.525177,281.414093 298.102600,280.975861 
	C294.468750,280.615814 290.233887,282.893127 287.578308,278.333160 
z"/>
<path fill="#7C3AE5" opacity="1.000000" stroke="none" 
	d="
M303.193939,254.538879 
	C302.590698,255.327042 302.082520,255.702255 301.003693,256.498810 
	C301.003693,253.634277 301.003693,251.152817 301.003693,248.671356 
	C301.530060,248.694427 302.056458,248.717499 302.853821,248.901718 
	C303.179535,250.750549 303.234253,252.438248 303.193939,254.538879 
z"/>
<path fill="#4E31F2" opacity="1.000000" stroke="none" 
	d="
M85.601013,203.787750 
	C86.505424,204.173279 87.610138,204.644577 87.579262,204.737183 
	C86.221664,208.808182 89.298691,211.853622 90.107498,215.394699 
	C91.386124,220.992722 89.119621,224.301651 83.512207,225.194687 
	C81.623940,225.495407 79.162949,227.622177 78.526634,229.456512 
	C75.127853,239.254333 72.022270,249.167313 69.223602,259.154877 
	C67.510582,265.268127 66.531227,271.586945 65.357155,277.172302 
	C63.881256,277.711426 63.581337,277.891968 63.265644,277.925934 
	C53.377460,278.989868 50.733990,276.268036 48.849316,266.064880 
	C47.141010,256.816528 44.221169,247.787186 41.736404,238.688354 
	C38.926983,228.400635 35.966518,218.154037 33.184792,207.859024 
	C32.823215,206.520844 33.135216,205.000671 33.135216,202.987442 
	C35.622913,202.987442 37.613625,203.221649 39.528721,202.940598 
	C44.066730,202.274612 45.224308,205.080780 45.960697,208.640503 
	C47.792313,217.494522 49.709572,226.330795 51.579777,235.176880 
	C52.742123,240.674805 53.871159,246.179810 55.038548,251.676666 
	C55.313446,252.971069 55.390930,254.438889 56.081505,255.480743 
	C56.972435,256.824921 58.613426,258.911926 59.528461,258.723419 
	C61.087315,258.402191 63.150883,256.787140 63.566151,255.311523 
	C65.302856,249.140228 66.364014,242.782867 67.937233,236.560577 
	C70.204971,227.591354 72.682518,218.674789 75.115974,209.748138 
	C75.718079,207.539413 76.495270,205.378418 77.274582,202.936646 
	C78.996597,205.026260 80.180374,206.462738 81.364151,207.899216 
	C82.278229,206.711166 83.163460,205.498962 84.125168,204.350784 
	C84.390022,204.034576 84.883194,203.909607 85.601013,203.787750 
z"/>
<path fill="#7921F7" opacity="1.000000" stroke="none" 
	d="
M329.444702,241.023499 
	C326.929108,230.387405 317.826569,231.372665 309.981659,229.618423 
	C311.941467,224.314743 316.436188,223.236954 320.435364,223.161118 
	C332.083435,222.940277 339.247162,227.729919 339.890900,240.529892 
	C340.449432,251.634201 339.830261,262.793060 340.101440,273.918762 
	C340.212128,278.458740 337.550446,277.915100 334.670868,278.070312 
	C331.450134,278.243927 329.858459,277.521271 329.898895,273.757965 
	C330.014679,262.974976 329.740082,252.187790 329.444702,241.023499 
z"/>
<path fill="#7C3AE5" opacity="1.000000" stroke="none" 
	d="
M301.576721,270.151794 
	C300.825134,268.925751 300.299805,267.425079 299.774475,265.924408 
	C300.450623,265.800018 301.126801,265.675629 301.802948,265.551208 
	C301.802948,266.993195 301.802948,268.435150 301.576721,270.151794 
z"/>
<path fill="#5C2FF4" opacity="1.000000" stroke="none" 
	d="
M146.270462,227.178986 
	C151.532593,223.423981 156.806442,221.721573 162.877594,223.880127 
	C163.708786,224.175674 164.855179,223.817123 165.791733,223.543030 
	C169.537994,222.446640 171.719467,224.045837 172.628052,227.616196 
	C178.024887,225.282318 183.923569,229.288330 184.602524,236.398254 
	C182.721100,235.313599 181.346695,234.521240 179.636978,233.535568 
	C179.307724,234.079437 178.239731,235.186478 178.457932,235.579544 
	C183.498428,244.659393 180.291168,254.457321 180.857269,263.887085 
	C181.093552,267.822784 179.734833,271.890259 178.819656,275.832397 
	C178.604721,276.758270 177.248703,277.419250 175.781708,278.801117 
	C174.683060,272.522003 172.645569,267.820557 174.551285,261.986908 
	C176.532684,255.921570 174.579880,250.373962 165.423141,252.307266 
	C163.017578,252.815170 160.502853,252.842896 158.032440,252.999481 
	C151.681595,253.401978 147.774368,257.291992 148.013580,263.041016 
	C148.239624,268.473480 152.275314,272.032806 158.435837,271.965790 
	C161.449875,271.933044 164.459503,271.495636 167.832794,271.210876 
	C163.368164,278.700653 153.958130,280.713165 145.753799,277.334564 
	C139.375000,274.707672 136.086990,271.137421 137.784195,261.427124 
	C139.260529,252.980423 142.876236,250.543701 151.256149,249.885117 
	C158.061630,249.350296 164.848541,248.160767 171.522446,246.705551 
	C172.944992,246.395370 174.639023,243.773422 174.834518,242.059845 
	C175.419983,236.927841 172.510391,233.115814 168.513062,230.401810 
	C165.060104,228.057404 161.765945,228.125092 157.519516,230.283539 
	C153.087112,232.536514 149.544937,237.955627 143.341125,235.990051 
	C142.728546,235.795975 142.089859,235.684341 139.787430,235.133530 
	C142.201691,232.120621 144.087555,229.767136 146.270462,227.178986 
z"/>
<path fill="#F2ECFD" opacity="1.000000" stroke="none" 
	d="
M162.296371,255.036530 
	C163.745102,254.985733 164.754700,254.812088 165.727234,254.933975 
	C167.755722,255.188248 171.425735,255.397034 171.496475,255.979614 
	C171.817169,258.620941 171.822769,261.746552 170.648727,264.034241 
	C167.865173,269.458221 158.352753,271.521606 153.130081,268.351532 
	C148.717239,265.673004 148.894867,259.538635 153.746658,257.105743 
	C156.177414,255.886856 159.126038,255.700714 162.296371,255.036530 
z"/>
<path fill="#811FF4" opacity="1.000000" stroke="none" 
	d="
M357.542511,265.080505 
	C362.597015,264.537506 366.211823,265.785767 370.134918,268.923126 
	C373.385010,271.522247 378.677979,272.418213 383.088593,272.481506 
	C387.732758,272.548126 390.848419,268.392395 390.932159,264.294098 
	C391.009247,260.520905 387.563049,257.148163 382.924957,256.069366 
	C377.768616,254.870010 372.599640,253.641815 367.562531,252.031052 
	C358.732849,249.207413 356.396210,245.497925 356.917786,236.056900 
	C357.200287,230.943283 363.267670,224.088501 369.091827,223.149048 
	C374.142395,222.334351 379.335083,221.938049 384.445831,222.074203 
	C391.065277,222.250549 395.753662,226.520859 399.924927,231.119507 
	C400.843048,232.131744 401.075806,234.346313 400.677948,235.736404 
	C400.466400,236.475571 398.254517,236.830399 396.898529,237.017120 
	C393.402496,237.498459 390.810028,236.582321 388.482544,233.351318 
	C384.872864,228.340454 376.788818,228.266159 372.126251,230.970261 
	C370.152740,232.114822 368.650970,235.468567 368.457886,237.937347 
	C368.211426,241.088562 369.951080,244.014374 373.634033,244.866974 
	C379.523285,246.230331 385.535370,247.215469 391.263977,249.074219 
	C396.231842,250.686172 400.890869,253.063385 403.085358,258.628815 
	C405.427399,264.568451 400.970154,273.587128 394.397552,276.743835 
	C384.020538,281.727661 373.485779,281.466431 363.395081,276.096008 
	C360.649048,274.634521 358.643646,271.579712 356.686707,268.965454 
	C356.130646,268.222626 356.943909,266.454773 357.542511,265.080505 
z"/>
<path fill="#7029F2" opacity="1.000000" stroke="none" 
	d="
M272.753479,207.509888 
	C270.559265,210.309753 268.617554,212.146790 265.019775,209.926544 
	C261.730560,207.896729 259.423950,205.102753 261.460693,201.905914 
	C262.721405,199.927063 266.642548,198.573792 269.238251,198.760742 
	C273.321808,199.054855 274.293732,202.378708 273.078796,206.177795 
	C272.978485,206.491486 272.965881,206.833221 272.753479,207.509888 
z"/>
</svg>